# xmcd
#
# Track frame offsets:
#	150
#	51000
#	111284
#	129998
#	175196
#	230480
#	268987
#
# Disc length: 3601 seconds
#
# Revision: 1
# Processed by: cddbd v1.5.2PL0 Copyright (c) Steve Scherf et al.
# Submitted via: audiograbber 1.83.01
#
DISCID=5e0e0f07
DTITLE=Grateful Dead - 79-12-10 Soldiers and Sailors Memorial Hall, Kansas City K
DTITLE=S
DYEAR=1900
DGENRE=
TTITLE0=Scarlet Begonias
TTITLE1=Fire On The Mountain
TTITLE2=Easy To Love You
TTITLE3=Let It Grow
TTITLE4=He's Gone
TTITLE5=Truckin'
TTITLE6=Drums
EXTD=
EXTT0=
EXTT1=
EXTT2=
EXTT3=
EXTT4=
EXTT5=
EXTT6=
PLAYORDER=
